# xmcd
#
# Track frame offsets: 
#        150
#        20949
#        36933
#        59331
#        93088
#        111027
#
# Disc length: 1809 seconds
#
# Revision: 0
# Processed by: cddbd v1.5.2PL0 Copyright (c) Steve Scherf et al.
# Submitted via: ExactAudioCopy v1.0b3
#
DISCID=49070f06
DTITLE=Sterling Koch - Steel Guitar Blues
DYEAR=2010
DGENRE=Blues-Rock
TTITLE0=Bluesman For Life
TTITLE1=Shake Your Hips
TTITLE2=Mean Old World
TTITLE3=Everybody Wants To Go To Heaven
TTITLE4=Kiss the Blues Goodbye
TTITLE5=Further On Up the Road
EXTD=
EXTT0=
EXTT1=
EXTT2=
EXTT3=
EXTT4=
EXTT5=
PLAYORDER=
